<?xml version="1.0" encoding="utf-8"?>
<!-- Generator: Adobe Illustrator 16.2.1, SVG Export Plug-In . SVG Version: 6.00 Build 0)  -->
<!DOCTYPE svg PUBLIC "-//W3C//DTD SVG 1.1//EN" "http://www.w3.org/Graphics/SVG/1.1/DTD/svg11.dtd">
<svg version="1.1" id="Layer_1" xmlns="http://www.w3.org/2000/svg" xmlns:xlink="http://www.w3.org/1999/xlink" x="0px" y="0px"
	 width="200px" height="268px" viewBox="0 0 200 268" enable-background="new 0 0 200 268" xml:space="preserve">
<g>
	<g>
		<path d="M28.057,30.733c0,8.567,0,19.247,0,27.937c0,1.689,0.844,3.318,3.076,3.318c2.052,0,2.958-1.507,2.958-3.139
			c0-1.146,0-2.412,0-3.559c0-0.484,0.784-0.484,1.87-0.484c1.448,0,2.173-0.119,2.173,0.484c0,1.207,0,2.533,0,3.68
			c0,3.803-2.052,7.062-7.001,7.062c-4.706,0-6.999-3.802-6.999-7c0-9.11,0-18.945,0-28.117c0-3.259,2.293-7.122,6.999-7.122
			c5.009,0,7.001,4.525,7.001,7.122c0,0.785,0,1.81,0,2.716c0,0.601-0.906,0.663-1.992,0.663c-1.206,0-2.051,0.06-2.051-0.663
			c0-0.846,0-1.994,0-2.837c0-1.327-1.147-3.258-2.958-3.258C29.263,27.535,28.057,29.343,28.057,30.733z"/>
		<path d="M43.185,66.101c-0.904,0-1.688,0-1.629-0.543c1.871-15.687,3.5-27.272,5.189-40.85c0.121-0.846,0.422-0.906,1.749-0.906
			c1.509,0,1.992,0.06,2.113,1.085c2.051,15.448,3.075,24.859,5.128,40.609c0.062,0.664-0.241,0.604-1.87,0.604
			c-1.75,0-2.052,0.121-2.172-0.725c-0.482-3.378-0.846-6.396-1.329-9.713c-0.06-0.606-0.904-0.546-1.87-0.546
			c-1.147,0-1.749-0.061-1.809,0.546c-0.363,3.377-0.664,6.335-0.965,9.834C45.659,66.162,45.116,66.101,43.185,66.101z
			 M48.555,51.802c0.724,0,1.387,0,1.327-0.484c-0.422-5.189-0.603-8.508-0.964-13.275c0-0.242-0.062-0.663-0.423-0.663
			c-0.302,0-0.362,0.421-0.362,0.603c-0.362,5.069-0.603,9.294-0.904,13.276C47.167,51.679,47.711,51.802,48.555,51.802z"/>
		<path d="M63.621,65.066c0,0.965-0.24,0.965-2.051,0.965c-1.387,0-1.809,0-1.809-0.845c0-14.843,0-25.163,0-39.522
			c0-0.604,0.061-1.267,0.422-1.63c0.482-0.421,0.904-0.241,1.387-0.241c1.269,0,2.171,0,3.441,0c1.931,0,4.523,0.484,6.334,2.113
			c1.811,1.688,2.233,4.164,2.233,6.274c0,2.051,0,3.38,0,5.431c0,1.449,0.06,2.475-0.665,3.802
			c-0.904,1.688-2.836,2.171-2.836,2.413c0,0.24,1.99,0.604,2.896,2.412c0.725,1.45,0.664,2.353,0.664,3.803
			c0,5.25,0,9.775,0,15.025c0,0.965-0.423,0.965-2.051,0.965c-1.391,0-1.812,0.061-1.812-0.845c0-5.37,0-10.499,0-15.325
			c0-2.477-1.628-3.984-2.957-3.984c-2.835,0-3.198-0.061-3.198,0.906C63.621,52.394,63.621,58.55,63.621,65.066z M65.191,27.775
			c-0.545,0-1.086,0-1.327,0.423c-0.183,0.363-0.183,0.664-0.183,1.026c0,4.344,0,7.061,0,11.284c0,0.664-0.12,1.327,0.364,1.688
			c0.36,0.302,0.784,0.243,1.085,0.243c0.663,0,2.232-0.184,3.318-1.327c1.207-1.33,1.207-2.355,1.207-3.2c0-2.172,0-3.56,0-5.732
			c0-1.387-0.241-2.413-1.268-3.5C67.725,28.078,67.363,27.775,65.191,27.775z"/>
		<path d="M82.415,30.733c0,8.567,0,19.368,0,28.058c0,1.509,0.665,3.317,3.077,3.317c2.352,0,2.956-1.868,2.956-3.138
			c0-3.377,0-6.518,0-10.38c0-0.3,0.062-0.661-0.239-0.902c-0.425-0.304-1.691-0.12-2.295-0.12c-0.482,0-0.543-0.484-0.543-1.752
			c0-1.326,0.061-1.87,0.481-1.87c1.63,0,5.915-0.181,6.577-0.06c0.242,0.06,0.062,0.484,0.062,0.725c0,7.782,0,12.49,0,20.093
			c0,0.423,0.061,0.904-0.303,1.267c-0.302,0.301-0.785,0-1.327,0c-0.482,0-0.241-1.328-1.087-1.871
			c-0.664-0.422-1.327,1.932-4.283,1.932c-5.13,0-7.001-4.223-7.001-7c0-9.11,0-18.945,0-28.117c0-2.354,1.571-7.122,7.001-7.122
			c5.311,0,7,4.949,7,7.122c0,0.785,0,1.93,0,2.716c0,0.541-0.484,0.722-2.112,0.722c-1.509,0-1.87-0.06-1.87-0.604
			c0-0.844-0.062-2.112-0.062-2.955c0-1.327-1.146-3.258-2.956-3.258C83.62,27.535,82.415,29.467,82.415,30.733z"/>
		<path d="M111.223,58.488c0,3.922-1.631,7.543-6.998,7.543c-5.01,0-7-3.621-7-7.543c0-9.111,0-18.342,0-27.333
			c0-4.525,3.078-7.362,7-7.362c3.98,0,6.998,3.139,6.998,7.362C111.223,40.146,111.223,49.377,111.223,58.488z M101.146,31.155
			c0,8.688,0,18.404,0,27.154c0,1.748,0.357,3.68,3.076,3.68c2.411,0,3.016-1.992,3.016-3.68c0-8.809,0-18.405,0-27.154
			c0-1.688-1.266-3.62-3.016-3.62C102.412,27.535,101.146,29.467,101.146,31.155z"/>
	</g>
	<polygon points="127.013,31.985 121.418,31.985 123.818,23.802 114.716,35.036 120.383,35.036 117.986,43.219 	"/>
</g>
<g>
	<g>
		<path fill="#FFFFFF" d="M28.057,164.734c0,8.566,0,19.247,0,27.937c0,1.689,0.844,3.318,3.076,3.318
			c2.052,0,2.958-1.507,2.958-3.139c0-1.146,0-2.412,0-3.56c0-0.483,0.784-0.483,1.87-0.483c1.448,0,2.173-0.119,2.173,0.483
			c0,1.207,0,2.533,0,3.68c0,3.804-2.052,7.062-7.001,7.062c-4.706,0-6.999-3.802-6.999-7c0-9.11,0-18.945,0-28.117
			c0-3.259,2.293-7.122,6.999-7.122c5.009,0,7.001,4.525,7.001,7.122c0,0.785,0,1.811,0,2.716c0,0.602-0.906,0.663-1.992,0.663
			c-1.206,0-2.051,0.061-2.051-0.663c0-0.846,0-1.994,0-2.837c0-1.327-1.147-3.258-2.958-3.258
			C29.263,161.536,28.057,163.344,28.057,164.734z"/>
		<path fill="#FFFFFF" d="M43.185,200.103c-0.904,0-1.688,0-1.629-0.543c1.871-15.688,3.5-27.272,5.189-40.851
			c0.121-0.846,0.422-0.906,1.749-0.906c1.509,0,1.992,0.061,2.113,1.086c2.051,15.447,3.075,24.858,5.128,40.608
			c0.062,0.664-0.241,0.604-1.87,0.604c-1.75,0-2.052,0.121-2.172-0.726c-0.482-3.378-0.846-6.396-1.329-9.713
			c-0.06-0.605-0.904-0.546-1.87-0.546c-1.147,0-1.749-0.061-1.809,0.546c-0.363,3.377-0.664,6.335-0.965,9.834
			C45.659,200.163,45.116,200.103,43.185,200.103z M48.555,185.803c0.724,0,1.387,0,1.327-0.483
			c-0.422-5.189-0.603-8.508-0.964-13.275c0-0.242-0.062-0.663-0.423-0.663c-0.302,0-0.362,0.421-0.362,0.604
			c-0.362,5.068-0.603,9.294-0.904,13.275C47.167,185.681,47.711,185.803,48.555,185.803z"/>
		<path fill="#FFFFFF" d="M63.621,199.067c0,0.965-0.24,0.965-2.051,0.965c-1.387,0-1.809,0-1.809-0.845c0-14.844,0-25.163,0-39.522
			c0-0.604,0.061-1.267,0.422-1.63c0.482-0.421,0.904-0.241,1.387-0.241c1.269,0,2.171,0,3.441,0c1.931,0,4.523,0.484,6.334,2.113
			c1.811,1.688,2.233,4.164,2.233,6.274c0,2.051,0,3.38,0,5.431c0,1.449,0.06,2.475-0.665,3.802
			c-0.904,1.688-2.836,2.171-2.836,2.413c0,0.24,1.99,0.604,2.896,2.412c0.725,1.45,0.664,2.353,0.664,3.803
			c0,5.25,0,9.775,0,15.025c0,0.965-0.423,0.965-2.051,0.965c-1.391,0-1.812,0.061-1.812-0.845c0-5.37,0-10.499,0-15.325
			c0-2.478-1.628-3.984-2.957-3.984c-2.835,0-3.198-0.061-3.198,0.906C63.621,186.396,63.621,192.551,63.621,199.067z
			 M65.191,161.776c-0.545,0-1.086,0-1.327,0.423c-0.183,0.363-0.183,0.664-0.183,1.026c0,4.344,0,7.061,0,11.283
			c0,0.664-0.12,1.327,0.364,1.688c0.36,0.302,0.784,0.243,1.085,0.243c0.663,0,2.232-0.185,3.318-1.327
			c1.207-1.33,1.207-2.355,1.207-3.2c0-2.172,0-3.56,0-5.731c0-1.388-0.241-2.413-1.268-3.5
			C67.725,162.079,67.363,161.776,65.191,161.776z"/>
		<path fill="#FFFFFF" d="M82.415,164.734c0,8.566,0,19.368,0,28.058c0,1.509,0.665,3.317,3.077,3.317
			c2.352,0,2.956-1.868,2.956-3.139c0-3.377,0-6.518,0-10.38c0-0.3,0.062-0.66-0.239-0.901c-0.425-0.305-1.691-0.12-2.295-0.12
			c-0.482,0-0.543-0.484-0.543-1.752c0-1.326,0.061-1.87,0.481-1.87c1.63,0,5.915-0.181,6.577-0.061
			c0.242,0.061,0.062,0.484,0.062,0.726c0,7.782,0,12.49,0,20.093c0,0.423,0.061,0.904-0.303,1.268c-0.302,0.301-0.785,0-1.327,0
			c-0.482,0-0.241-1.328-1.087-1.871c-0.664-0.423-1.327,1.932-4.283,1.932c-5.13,0-7.001-4.223-7.001-7c0-9.11,0-18.945,0-28.117
			c0-2.354,1.571-7.122,7.001-7.122c5.311,0,7,4.949,7,7.122c0,0.785,0,1.93,0,2.716c0,0.541-0.484,0.723-2.112,0.723
			c-1.509,0-1.87-0.061-1.87-0.604c0-0.844-0.062-2.111-0.062-2.955c0-1.327-1.146-3.258-2.956-3.258
			C83.62,161.536,82.415,163.468,82.415,164.734z"/>
		<path fill="#FFFFFF" d="M111.223,192.489c0,3.922-1.631,7.543-6.998,7.543c-5.01,0-7-3.621-7-7.543c0-9.111,0-18.342,0-27.333
			c0-4.525,3.078-7.362,7-7.362c3.98,0,6.998,3.14,6.998,7.362C111.223,174.147,111.223,183.378,111.223,192.489z M101.146,165.156
			c0,8.688,0,18.404,0,27.154c0,1.748,0.357,3.68,3.076,3.68c2.411,0,3.016-1.992,3.016-3.68c0-8.81,0-18.405,0-27.154
			c0-1.688-1.266-3.62-3.016-3.62C102.412,161.536,101.146,163.468,101.146,165.156z"/>
	</g>
	<polygon fill="#FFFFFF" points="127.013,165.986 121.418,165.986 123.818,157.803 114.716,169.037 120.383,169.037 117.986,177.22 
			"/>
</g>
</svg>
